<svg xmlns="http://www.w3.org/2000/svg" xmlns:xlink="http://www.w3.org/1999/xlink" width="500" zoomAndPan="magnify" viewBox="0 0 375 374.999991" height="500" preserveAspectRatio="xMidYMid meet" version="1.0"><defs><g/></defs><g fill="#ff00ff" fill-opacity="1"><g transform="translate(45.293097, 189.666163)"><g><path d="M 50.71875 0 L 50.71875 -31.398438 L 31.398438 -31.398438 L 50.71875 -36.226562 L 50.71875 -62.792969 L 2.414062 -62.792969 L 2.414062 0 L 21.738281 0 L 21.738281 -24.152344 L 31.398438 -24.152344 L 31.398438 4.832031 Z M 31.398438 -38.640625 L 21.738281 -38.640625 L 21.738281 -48.304688 L 31.398438 -48.304688 Z M 31.398438 -38.640625 "/></g></g></g><g fill="#ff00ff" fill-opacity="1"><g transform="translate(111.2836, 189.666163)"><g><path d="M 21.738281 0 L 21.738281 -24.152344 L 31.398438 -24.152344 L 31.398438 4.832031 L 50.71875 0 L 50.71875 -62.792969 L 2.414062 -62.792969 L 2.414062 0 Z M 31.398438 -38.640625 L 21.738281 -38.640625 L 21.738281 -48.304688 L 31.398438 -48.304688 Z M 31.398438 -38.640625 "/></g></g></g><g fill="#ff00ff" fill-opacity="1"><g transform="translate(177.274102, 189.666163)"><g><path d="M 31.398438 4.832031 L 50.71875 0 L 50.71875 -31.398438 L 31.398438 -31.398438 L 50.71875 -36.226562 L 50.71875 -62.792969 L 31.398438 -62.792969 L 31.398438 -38.640625 L 21.738281 -38.640625 L 21.738281 -62.792969 L 2.414062 -62.792969 L 2.414062 0 L 21.738281 0 L 21.738281 -24.152344 L 31.398438 -24.152344 Z M 31.398438 4.832031 "/></g></g></g><g fill="#ff00ff" fill-opacity="1"><g transform="translate(243.264611, 189.666163)"><g><path d="M 31.398438 4.832031 L 50.71875 0 L 50.71875 -31.398438 L 31.398438 -31.398438 L 50.71875 -36.226562 L 50.71875 -62.792969 L 31.398438 -62.792969 L 31.398438 -38.640625 L 21.738281 -38.640625 L 21.738281 -62.792969 L 2.414062 -62.792969 L 2.414062 0 L 21.738281 0 L 21.738281 -24.152344 L 31.398438 -24.152344 Z M 31.398438 4.832031 "/></g></g></g><g fill="#ff00ff" fill-opacity="1"><g transform="translate(309.255108, 189.666163)"><g><path d="M 2.414062 -82.117188 L 2.414062 -67.625 L 21.738281 -67.625 L 21.738281 -82.117188 Z M 2.414062 0 L 21.738281 0 L 21.738281 -62.792969 L 2.414062 -62.792969 Z M 2.414062 0 "/></g></g></g><g fill="#ff00ff" fill-opacity="1"><g transform="translate(333.405001, 189.666163)"><g><path d="M -36.226562 -82.117188 L -36.226562 -67.625 L -2.414062 -67.625 L -2.414062 -82.117188 Z M -36.226562 -82.117188 "/></g></g></g><g fill="#00ffff" fill-opacity="1"><g transform="translate(41.583269, 189.666163)"><g><path d="M 50.71875 0 L 50.71875 -31.398438 L 31.398438 -31.398438 L 50.71875 -36.226562 L 50.71875 -62.792969 L 2.414062 -62.792969 L 2.414062 0 L 21.738281 0 L 21.738281 -24.152344 L 31.398438 -24.152344 L 31.398438 4.832031 Z M 31.398438 -38.640625 L 21.738281 -38.640625 L 21.738281 -48.304688 L 31.398438 -48.304688 Z M 31.398438 -38.640625 "/></g></g></g><g fill="#00ffff" fill-opacity="1"><g transform="translate(107.573772, 189.666163)"><g><path d="M 21.738281 0 L 21.738281 -24.152344 L 31.398438 -24.152344 L 31.398438 4.832031 L 50.71875 0 L 50.71875 -62.792969 L 2.414062 -62.792969 L 2.414062 0 Z M 31.398438 -38.640625 L 21.738281 -38.640625 L 21.738281 -48.304688 L 31.398438 -48.304688 Z M 31.398438 -38.640625 "/></g></g></g><g fill="#00ffff" fill-opacity="1"><g transform="translate(173.564275, 189.666163)"><g><path d="M 31.398438 4.832031 L 50.71875 0 L 50.71875 -31.398438 L 31.398438 -31.398438 L 50.71875 -36.226562 L 50.71875 -62.792969 L 31.398438 -62.792969 L 31.398438 -38.640625 L 21.738281 -38.640625 L 21.738281 -62.792969 L 2.414062 -62.792969 L 2.414062 0 L 21.738281 0 L 21.738281 -24.152344 L 31.398438 -24.152344 Z M 31.398438 4.832031 "/></g></g></g><g fill="#00ffff" fill-opacity="1"><g transform="translate(239.554783, 189.666163)"><g><path d="M 31.398438 4.832031 L 50.71875 0 L 50.71875 -31.398438 L 31.398438 -31.398438 L 50.71875 -36.226562 L 50.71875 -62.792969 L 31.398438 -62.792969 L 31.398438 -38.640625 L 21.738281 -38.640625 L 21.738281 -62.792969 L 2.414062 -62.792969 L 2.414062 0 L 21.738281 0 L 21.738281 -24.152344 L 31.398438 -24.152344 Z M 31.398438 4.832031 "/></g></g></g><g fill="#00ffff" fill-opacity="1"><g transform="translate(305.54528, 189.666163)"><g><path d="M 2.414062 -82.117188 L 2.414062 -67.625 L 21.738281 -67.625 L 21.738281 -82.117188 Z M 2.414062 0 L 21.738281 0 L 21.738281 -62.792969 L 2.414062 -62.792969 Z M 2.414062 0 "/></g></g></g><g fill="#00ffff" fill-opacity="1"><g transform="translate(329.695174, 189.666163)"><g><path d="M -36.226562 -82.117188 L -36.226562 -67.625 L -2.414062 -67.625 L -2.414062 -82.117188 Z M -36.226562 -82.117188 "/></g></g></g><g fill="#965fd4" fill-opacity="1"><g transform="translate(43.438183, 189.666163)"><g><path d="M 50.71875 0 L 50.71875 -31.398438 L 31.398438 -31.398438 L 50.71875 -36.226562 L 50.71875 -62.792969 L 2.414062 -62.792969 L 2.414062 0 L 21.738281 0 L 21.738281 -24.152344 L 31.398438 -24.152344 L 31.398438 4.832031 Z M 31.398438 -38.640625 L 21.738281 -38.640625 L 21.738281 -48.304688 L 31.398438 -48.304688 Z M 31.398438 -38.640625 "/></g></g></g><g fill="#965fd4" fill-opacity="1"><g transform="translate(109.428686, 189.666163)"><g><path d="M 21.738281 0 L 21.738281 -24.152344 L 31.398438 -24.152344 L 31.398438 4.832031 L 50.71875 0 L 50.71875 -62.792969 L 2.414062 -62.792969 L 2.414062 0 Z M 31.398438 -38.640625 L 21.738281 -38.640625 L 21.738281 -48.304688 L 31.398438 -48.304688 Z M 31.398438 -38.640625 "/></g></g></g><g fill="#965fd4" fill-opacity="1"><g transform="translate(175.419189, 189.666163)"><g><path d="M 31.398438 4.832031 L 50.71875 0 L 50.71875 -31.398438 L 31.398438 -31.398438 L 50.71875 -36.226562 L 50.71875 -62.792969 L 31.398438 -62.792969 L 31.398438 -38.640625 L 21.738281 -38.640625 L 21.738281 -62.792969 L 2.414062 -62.792969 L 2.414062 0 L 21.738281 0 L 21.738281 -24.152344 L 31.398438 -24.152344 Z M 31.398438 4.832031 "/></g></g></g><g fill="#965fd4" fill-opacity="1"><g transform="translate(241.409697, 189.666163)"><g><path d="M 31.398438 4.832031 L 50.71875 0 L 50.71875 -31.398438 L 31.398438 -31.398438 L 50.71875 -36.226562 L 50.71875 -62.792969 L 31.398438 -62.792969 L 31.398438 -38.640625 L 21.738281 -38.640625 L 21.738281 -62.792969 L 2.414062 -62.792969 L 2.414062 0 L 21.738281 0 L 21.738281 -24.152344 L 31.398438 -24.152344 Z M 31.398438 4.832031 "/></g></g></g><g fill="#965fd4" fill-opacity="1"><g transform="translate(307.400194, 189.666163)"><g><path d="M 2.414062 -82.117188 L 2.414062 -67.625 L 21.738281 -67.625 L 21.738281 -82.117188 Z M 2.414062 0 L 21.738281 0 L 21.738281 -62.792969 L 2.414062 -62.792969 Z M 2.414062 0 "/></g></g></g><g fill="#965fd4" fill-opacity="1"><g transform="translate(331.550087, 189.666163)"><g><path d="M -36.226562 -82.117188 L -36.226562 -67.625 L -2.414062 -67.625 L -2.414062 -82.117188 Z M -36.226562 -82.117188 "/></g></g></g><g fill="#ff00ff" fill-opacity="1"><g transform="translate(82.741487, 265.47886)"><g><path d="M 40.871094 -33.839844 C 42.035156 -33.839844 43.886719 -33.152344 44.519531 -32.519531 L 44.679688 -32.675781 C 44.042969 -33.3125 43.359375 -35.160156 43.359375 -36.378906 C 43.359375 -37.542969 44.042969 -39.390625 44.679688 -40.027344 L 44.519531 -40.183594 C 43.886719 -39.550781 42.035156 -38.863281 40.871094 -38.863281 L 12.054688 -38.863281 C 10.839844 -38.863281 8.988281 -39.550781 8.355469 -40.183594 L 8.195312 -40.027344 C 8.832031 -39.390625 9.515625 -37.542969 9.515625 -36.378906 C 9.515625 -35.160156 8.832031 -33.3125 8.195312 -32.675781 L 8.355469 -32.519531 C 8.988281 -33.152344 10.839844 -33.839844 12.054688 -33.839844 Z M 5.550781 -22.734375 C 5.550781 -21.519531 4.863281 -19.617188 4.230469 -18.980469 L 4.335938 -18.875 C 4.96875 -19.511719 6.875 -20.199219 8.089844 -20.199219 L 40.820312 -20.199219 C 39.023438 -8.722656 29.082031 -4.070312 15.597656 -2.855469 C 14.433594 -2.855469 12.585938 -3.066406 11.632812 -3.808594 L 11.527344 -3.648438 C 12.265625 -3.066406 13.273438 -1.375 13.484375 -0.160156 C 13.695312 1.003906 13.324219 3.066406 12.796875 3.753906 L 12.953125 3.859375 C 13.484375 3.171875 15.28125 2.273438 16.445312 2.167969 C 36.90625 0.316406 46.792969 -8.566406 46.792969 -24.214844 L 46.792969 -24.746094 C 46.792969 -25.011719 47.007812 -25.328125 47.113281 -25.484375 L 47.007812 -25.589844 C 46.847656 -25.484375 46.53125 -25.273438 46.265625 -25.273438 L 8.089844 -25.273438 C 6.875 -25.273438 4.96875 -25.960938 4.335938 -26.597656 L 4.230469 -26.492188 C 4.863281 -25.855469 5.550781 -23.953125 5.550781 -22.734375 Z M 5.550781 -22.734375 "/></g></g></g><g fill="#ff00ff" fill-opacity="1"><g transform="translate(135.616403, 265.47886)"><g><path d="M 21.253906 -27.019531 C 22.101562 -24.003906 22.949219 -20.726562 23.742188 -17.554688 C 24.058594 -16.390625 23.792969 -14.277344 23.316406 -13.535156 L 23.53125 -13.429688 C 24.324219 -14.644531 26.492188 -15.703125 28.023438 -15.703125 C 29.132812 -15.703125 30.457031 -15.441406 31.039062 -15.070312 L 31.144531 -15.226562 C 30.351562 -15.703125 29.1875 -17.449219 28.871094 -18.664062 C 28.078125 -21.890625 27.230469 -25.117188 26.382812 -28.128906 C 26.066406 -29.292969 26.277344 -31.40625 26.753906 -32.148438 L 26.542969 -32.253906 C 26.066406 -31.511719 24.324219 -30.351562 23.160156 -30.140625 C 22.207031 -29.875 19.933594 -30.140625 18.980469 -30.613281 L 18.875 -30.457031 C 19.722656 -29.980469 20.9375 -28.234375 21.253906 -27.019531 Z M 38.175781 -27.863281 C 37.382812 -11.632812 32.199219 -5.605469 17.925781 -3.171875 C 16.972656 -2.960938 14.804688 -3.332031 14.011719 -3.808594 L 13.90625 -3.648438 C 14.644531 -3.171875 15.703125 -1.535156 15.96875 -0.371094 C 16.234375 0.742188 15.914062 2.75 15.441406 3.488281 L 15.652344 3.59375 C 16.125 2.855469 17.820312 1.902344 18.980469 1.746094 C 35.636719 -0.847656 42.5625 -8.722656 43.464844 -27.601562 C 43.515625 -28.871094 44.363281 -30.773438 45.101562 -31.40625 L 44.945312 -31.566406 C 44.042969 -30.773438 42.089844 -30.402344 40.925781 -30.402344 C 39.710938 -30.457031 37.804688 -31.25 37.171875 -31.988281 L 37.011719 -31.832031 C 37.648438 -31.144531 38.230469 -29.082031 38.175781 -27.863281 Z M 9.78125 -25.644531 C 10.574219 -22.789062 11.367188 -19.773438 12.160156 -16.601562 C 12.476562 -15.441406 12.214844 -13.324219 11.738281 -12.585938 L 11.949219 -12.476562 C 12.742188 -13.695312 14.910156 -14.753906 16.445312 -14.753906 C 17.554688 -14.753906 18.875 -14.488281 19.511719 -14.117188 L 19.617188 -14.277344 C 18.769531 -14.753906 17.605469 -16.496094 17.289062 -17.714844 C 16.445312 -20.886719 15.652344 -23.953125 14.859375 -26.753906 C 14.488281 -27.917969 14.699219 -29.925781 15.121094 -30.71875 L 14.964844 -30.824219 C 14.328125 -29.714844 12.265625 -28.605469 10.46875 -28.605469 C 9.359375 -28.605469 8.144531 -28.871094 7.5625 -29.1875 L 7.457031 -29.027344 C 8.25 -28.5 9.464844 -26.859375 9.78125 -25.644531 Z M 9.78125 -25.644531 "/></g></g></g><g fill="#ff00ff" fill-opacity="1"><g transform="translate(188.49132, 265.47886)"><g><path d="M 22.367188 -32.730469 L 9.304688 -32.253906 C 8.195312 -32.253906 6.34375 -32.675781 5.550781 -33.417969 L 5.394531 -33.257812 C 6.027344 -32.675781 6.820312 -30.824219 6.875 -29.664062 C 6.925781 -28.445312 6.292969 -26.542969 5.710938 -25.910156 L 5.867188 -25.75 C 6.449219 -26.382812 8.300781 -27.179688 9.515625 -27.230469 L 22.789062 -27.707031 L 23.792969 -15.332031 L 7.191406 -14.804688 C 6.082031 -14.804688 4.230469 -15.226562 3.4375 -15.96875 L 3.277344 -15.808594 C 3.914062 -15.226562 4.707031 -13.378906 4.757812 -12.214844 C 4.8125 -10.996094 4.175781 -9.09375 3.59375 -8.460938 L 3.753906 -8.300781 C 4.335938 -8.9375 6.1875 -9.730469 7.402344 -9.78125 L 24.214844 -10.3125 L 25.117188 0.792969 C 25.273438 2.167969 24.640625 4.386719 23.953125 5.183594 L 24.109375 5.339844 C 24.796875 4.546875 26.914062 3.59375 28.289062 3.488281 C 29.503906 3.488281 31.726562 3.859375 32.675781 4.707031 L 32.835938 4.546875 C 32.042969 3.859375 31.089844 1.746094 30.984375 0.371094 L 30.085938 -10.46875 L 45.683594 -10.996094 C 46.792969 -10.996094 48.644531 -10.574219 49.4375 -9.835938 L 49.597656 -9.992188 C 48.960938 -10.574219 48.167969 -12.425781 48.117188 -13.640625 C 48.0625 -14.804688 48.699219 -16.707031 49.28125 -17.34375 L 49.121094 -17.5 C 48.539062 -16.867188 46.6875 -16.074219 45.472656 -16.019531 L 29.664062 -15.492188 L 28.660156 -27.917969 L 43.570312 -28.394531 C 44.679688 -28.394531 46.53125 -27.972656 47.324219 -27.230469 L 47.480469 -27.390625 C 46.847656 -27.972656 46.054688 -29.820312 46 -31.039062 C 45.949219 -32.199219 46.582031 -34.105469 47.164062 -34.738281 L 47.007812 -34.898438 C 46.425781 -34.261719 44.574219 -33.46875 43.359375 -33.417969 L 28.234375 -32.886719 L 27.757812 -38.863281 C 27.601562 -40.238281 28.234375 -42.457031 28.921875 -43.25 L 28.765625 -43.410156 C 28.078125 -42.617188 25.960938 -41.664062 24.585938 -41.558594 C 23.371094 -41.558594 21.148438 -41.929688 20.199219 -42.777344 L 20.039062 -42.617188 C 20.832031 -41.929688 21.785156 -39.816406 21.890625 -38.441406 Z M 22.367188 -32.730469 "/></g></g></g><g fill="#ff00ff" fill-opacity="1"><g transform="translate(241.366236, 265.47886)"><g><path d="M 45.367188 -16.285156 C 46.636719 -16.285156 48.75 -15.492188 49.4375 -14.804688 L 49.597656 -14.964844 C 48.910156 -15.652344 48.117188 -17.765625 48.117188 -19.085938 C 48.117188 -20.355469 48.910156 -22.472656 49.597656 -23.160156 L 49.4375 -23.316406 C 48.75 -22.628906 46.636719 -21.835938 45.367188 -21.835938 L 7.5625 -21.835938 C 6.238281 -21.835938 4.125 -22.628906 3.4375 -23.316406 L 3.277344 -23.160156 C 3.964844 -22.472656 4.757812 -20.355469 4.757812 -19.085938 C 4.757812 -17.765625 3.964844 -15.652344 3.277344 -14.964844 L 3.4375 -14.804688 C 4.125 -15.492188 6.238281 -16.285156 7.5625 -16.285156 Z M 45.367188 -16.285156 "/></g></g></g><g fill="#00ffff" fill-opacity="1"><g transform="translate(80.758511, 265.47886)"><g><path d="M 40.871094 -33.839844 C 42.035156 -33.839844 43.886719 -33.152344 44.519531 -32.519531 L 44.679688 -32.675781 C 44.042969 -33.3125 43.359375 -35.160156 43.359375 -36.378906 C 43.359375 -37.542969 44.042969 -39.390625 44.679688 -40.027344 L 44.519531 -40.183594 C 43.886719 -39.550781 42.035156 -38.863281 40.871094 -38.863281 L 12.054688 -38.863281 C 10.839844 -38.863281 8.988281 -39.550781 8.355469 -40.183594 L 8.195312 -40.027344 C 8.832031 -39.390625 9.515625 -37.542969 9.515625 -36.378906 C 9.515625 -35.160156 8.832031 -33.3125 8.195312 -32.675781 L 8.355469 -32.519531 C 8.988281 -33.152344 10.839844 -33.839844 12.054688 -33.839844 Z M 5.550781 -22.734375 C 5.550781 -21.519531 4.863281 -19.617188 4.230469 -18.980469 L 4.335938 -18.875 C 4.96875 -19.511719 6.875 -20.199219 8.089844 -20.199219 L 40.820312 -20.199219 C 39.023438 -8.722656 29.082031 -4.070312 15.597656 -2.855469 C 14.433594 -2.855469 12.585938 -3.066406 11.632812 -3.808594 L 11.527344 -3.648438 C 12.265625 -3.066406 13.273438 -1.375 13.484375 -0.160156 C 13.695312 1.003906 13.324219 3.066406 12.796875 3.753906 L 12.953125 3.859375 C 13.484375 3.171875 15.28125 2.273438 16.445312 2.167969 C 36.90625 0.316406 46.792969 -8.566406 46.792969 -24.214844 L 46.792969 -24.746094 C 46.792969 -25.011719 47.007812 -25.328125 47.113281 -25.484375 L 47.007812 -25.589844 C 46.847656 -25.484375 46.53125 -25.273438 46.265625 -25.273438 L 8.089844 -25.273438 C 6.875 -25.273438 4.96875 -25.960938 4.335938 -26.597656 L 4.230469 -26.492188 C 4.863281 -25.855469 5.550781 -23.953125 5.550781 -22.734375 Z M 5.550781 -22.734375 "/></g></g></g><g fill="#00ffff" fill-opacity="1"><g transform="translate(133.633427, 265.47886)"><g><path d="M 21.253906 -27.019531 C 22.101562 -24.003906 22.949219 -20.726562 23.742188 -17.554688 C 24.058594 -16.390625 23.792969 -14.277344 23.316406 -13.535156 L 23.53125 -13.429688 C 24.324219 -14.644531 26.492188 -15.703125 28.023438 -15.703125 C 29.132812 -15.703125 30.457031 -15.441406 31.039062 -15.070312 L 31.144531 -15.226562 C 30.351562 -15.703125 29.1875 -17.449219 28.871094 -18.664062 C 28.078125 -21.890625 27.230469 -25.117188 26.382812 -28.128906 C 26.066406 -29.292969 26.277344 -31.40625 26.753906 -32.148438 L 26.542969 -32.253906 C 26.066406 -31.511719 24.324219 -30.351562 23.160156 -30.140625 C 22.207031 -29.875 19.933594 -30.140625 18.980469 -30.613281 L 18.875 -30.457031 C 19.722656 -29.980469 20.9375 -28.234375 21.253906 -27.019531 Z M 38.175781 -27.863281 C 37.382812 -11.632812 32.199219 -5.605469 17.925781 -3.171875 C 16.972656 -2.960938 14.804688 -3.332031 14.011719 -3.808594 L 13.90625 -3.648438 C 14.644531 -3.171875 15.703125 -1.535156 15.96875 -0.371094 C 16.234375 0.742188 15.914062 2.75 15.441406 3.488281 L 15.652344 3.59375 C 16.125 2.855469 17.820312 1.902344 18.980469 1.746094 C 35.636719 -0.847656 42.5625 -8.722656 43.464844 -27.601562 C 43.515625 -28.871094 44.363281 -30.773438 45.101562 -31.40625 L 44.945312 -31.566406 C 44.042969 -30.773438 42.089844 -30.402344 40.925781 -30.402344 C 39.710938 -30.457031 37.804688 -31.25 37.171875 -31.988281 L 37.011719 -31.832031 C 37.648438 -31.144531 38.230469 -29.082031 38.175781 -27.863281 Z M 9.78125 -25.644531 C 10.574219 -22.789062 11.367188 -19.773438 12.160156 -16.601562 C 12.476562 -15.441406 12.214844 -13.324219 11.738281 -12.585938 L 11.949219 -12.476562 C 12.742188 -13.695312 14.910156 -14.753906 16.445312 -14.753906 C 17.554688 -14.753906 18.875 -14.488281 19.511719 -14.117188 L 19.617188 -14.277344 C 18.769531 -14.753906 17.605469 -16.496094 17.289062 -17.714844 C 16.445312 -20.886719 15.652344 -23.953125 14.859375 -26.753906 C 14.488281 -27.917969 14.699219 -29.925781 15.121094 -30.71875 L 14.964844 -30.824219 C 14.328125 -29.714844 12.265625 -28.605469 10.46875 -28.605469 C 9.359375 -28.605469 8.144531 -28.871094 7.5625 -29.1875 L 7.457031 -29.027344 C 8.25 -28.5 9.464844 -26.859375 9.78125 -25.644531 Z M 9.78125 -25.644531 "/></g></g></g><g fill="#00ffff" fill-opacity="1"><g transform="translate(186.508344, 265.47886)"><g><path d="M 22.367188 -32.730469 L 9.304688 -32.253906 C 8.195312 -32.253906 6.34375 -32.675781 5.550781 -33.417969 L 5.394531 -33.257812 C 6.027344 -32.675781 6.820312 -30.824219 6.875 -29.664062 C 6.925781 -28.445312 6.292969 -26.542969 5.710938 -25.910156 L 5.867188 -25.75 C 6.449219 -26.382812 8.300781 -27.179688 9.515625 -27.230469 L 22.789062 -27.707031 L 23.792969 -15.332031 L 7.191406 -14.804688 C 6.082031 -14.804688 4.230469 -15.226562 3.4375 -15.96875 L 3.277344 -15.808594 C 3.914062 -15.226562 4.707031 -13.378906 4.757812 -12.214844 C 4.8125 -10.996094 4.175781 -9.09375 3.59375 -8.460938 L 3.753906 -8.300781 C 4.335938 -8.9375 6.1875 -9.730469 7.402344 -9.78125 L 24.214844 -10.3125 L 25.117188 0.792969 C 25.273438 2.167969 24.640625 4.386719 23.953125 5.183594 L 24.109375 5.339844 C 24.796875 4.546875 26.914062 3.59375 28.289062 3.488281 C 29.503906 3.488281 31.726562 3.859375 32.675781 4.707031 L 32.835938 4.546875 C 32.042969 3.859375 31.089844 1.746094 30.984375 0.371094 L 30.085938 -10.46875 L 45.683594 -10.996094 C 46.792969 -10.996094 48.644531 -10.574219 49.4375 -9.835938 L 49.597656 -9.992188 C 48.960938 -10.574219 48.167969 -12.425781 48.117188 -13.640625 C 48.0625 -14.804688 48.699219 -16.707031 49.28125 -17.34375 L 49.121094 -17.5 C 48.539062 -16.867188 46.6875 -16.074219 45.472656 -16.019531 L 29.664062 -15.492188 L 28.660156 -27.917969 L 43.570312 -28.394531 C 44.679688 -28.394531 46.53125 -27.972656 47.324219 -27.230469 L 47.480469 -27.390625 C 46.847656 -27.972656 46.054688 -29.820312 46 -31.039062 C 45.949219 -32.199219 46.582031 -34.105469 47.164062 -34.738281 L 47.007812 -34.898438 C 46.425781 -34.261719 44.574219 -33.46875 43.359375 -33.417969 L 28.234375 -32.886719 L 27.757812 -38.863281 C 27.601562 -40.238281 28.234375 -42.457031 28.921875 -43.25 L 28.765625 -43.410156 C 28.078125 -42.617188 25.960938 -41.664062 24.585938 -41.558594 C 23.371094 -41.558594 21.148438 -41.929688 20.199219 -42.777344 L 20.039062 -42.617188 C 20.832031 -41.929688 21.785156 -39.816406 21.890625 -38.441406 Z M 22.367188 -32.730469 "/></g></g></g><g fill="#00ffff" fill-opacity="1"><g transform="translate(239.38326, 265.47886)"><g><path d="M 45.367188 -16.285156 C 46.636719 -16.285156 48.75 -15.492188 49.4375 -14.804688 L 49.597656 -14.964844 C 48.910156 -15.652344 48.117188 -17.765625 48.117188 -19.085938 C 48.117188 -20.355469 48.910156 -22.472656 49.597656 -23.160156 L 49.4375 -23.316406 C 48.75 -22.628906 46.636719 -21.835938 45.367188 -21.835938 L 7.5625 -21.835938 C 6.238281 -21.835938 4.125 -22.628906 3.4375 -23.316406 L 3.277344 -23.160156 C 3.964844 -22.472656 4.757812 -20.355469 4.757812 -19.085938 C 4.757812 -17.765625 3.964844 -15.652344 3.277344 -14.964844 L 3.4375 -14.804688 C 4.125 -15.492188 6.238281 -16.285156 7.5625 -16.285156 Z M 45.367188 -16.285156 "/></g></g></g><g fill="#965fd4" fill-opacity="1"><g transform="translate(81.749999, 265.47886)"><g><path d="M 40.871094 -33.839844 C 42.035156 -33.839844 43.886719 -33.152344 44.519531 -32.519531 L 44.679688 -32.675781 C 44.042969 -33.3125 43.359375 -35.160156 43.359375 -36.378906 C 43.359375 -37.542969 44.042969 -39.390625 44.679688 -40.027344 L 44.519531 -40.183594 C 43.886719 -39.550781 42.035156 -38.863281 40.871094 -38.863281 L 12.054688 -38.863281 C 10.839844 -38.863281 8.988281 -39.550781 8.355469 -40.183594 L 8.195312 -40.027344 C 8.832031 -39.390625 9.515625 -37.542969 9.515625 -36.378906 C 9.515625 -35.160156 8.832031 -33.3125 8.195312 -32.675781 L 8.355469 -32.519531 C 8.988281 -33.152344 10.839844 -33.839844 12.054688 -33.839844 Z M 5.550781 -22.734375 C 5.550781 -21.519531 4.863281 -19.617188 4.230469 -18.980469 L 4.335938 -18.875 C 4.96875 -19.511719 6.875 -20.199219 8.089844 -20.199219 L 40.820312 -20.199219 C 39.023438 -8.722656 29.082031 -4.070312 15.597656 -2.855469 C 14.433594 -2.855469 12.585938 -3.066406 11.632812 -3.808594 L 11.527344 -3.648438 C 12.265625 -3.066406 13.273438 -1.375 13.484375 -0.160156 C 13.695312 1.003906 13.324219 3.066406 12.796875 3.753906 L 12.953125 3.859375 C 13.484375 3.171875 15.28125 2.273438 16.445312 2.167969 C 36.90625 0.316406 46.792969 -8.566406 46.792969 -24.214844 L 46.792969 -24.746094 C 46.792969 -25.011719 47.007812 -25.328125 47.113281 -25.484375 L 47.007812 -25.589844 C 46.847656 -25.484375 46.53125 -25.273438 46.265625 -25.273438 L 8.089844 -25.273438 C 6.875 -25.273438 4.96875 -25.960938 4.335938 -26.597656 L 4.230469 -26.492188 C 4.863281 -25.855469 5.550781 -23.953125 5.550781 -22.734375 Z M 5.550781 -22.734375 "/></g></g></g><g fill="#965fd4" fill-opacity="1"><g transform="translate(134.624915, 265.47886)"><g><path d="M 21.253906 -27.019531 C 22.101562 -24.003906 22.949219 -20.726562 23.742188 -17.554688 C 24.058594 -16.390625 23.792969 -14.277344 23.316406 -13.535156 L 23.53125 -13.429688 C 24.324219 -14.644531 26.492188 -15.703125 28.023438 -15.703125 C 29.132812 -15.703125 30.457031 -15.441406 31.039062 -15.070312 L 31.144531 -15.226562 C 30.351562 -15.703125 29.1875 -17.449219 28.871094 -18.664062 C 28.078125 -21.890625 27.230469 -25.117188 26.382812 -28.128906 C 26.066406 -29.292969 26.277344 -31.40625 26.753906 -32.148438 L 26.542969 -32.253906 C 26.066406 -31.511719 24.324219 -30.351562 23.160156 -30.140625 C 22.207031 -29.875 19.933594 -30.140625 18.980469 -30.613281 L 18.875 -30.457031 C 19.722656 -29.980469 20.9375 -28.234375 21.253906 -27.019531 Z M 38.175781 -27.863281 C 37.382812 -11.632812 32.199219 -5.605469 17.925781 -3.171875 C 16.972656 -2.960938 14.804688 -3.332031 14.011719 -3.808594 L 13.90625 -3.648438 C 14.644531 -3.171875 15.703125 -1.535156 15.96875 -0.371094 C 16.234375 0.742188 15.914062 2.75 15.441406 3.488281 L 15.652344 3.59375 C 16.125 2.855469 17.820312 1.902344 18.980469 1.746094 C 35.636719 -0.847656 42.5625 -8.722656 43.464844 -27.601562 C 43.515625 -28.871094 44.363281 -30.773438 45.101562 -31.40625 L 44.945312 -31.566406 C 44.042969 -30.773438 42.089844 -30.402344 40.925781 -30.402344 C 39.710938 -30.457031 37.804688 -31.25 37.171875 -31.988281 L 37.011719 -31.832031 C 37.648438 -31.144531 38.230469 -29.082031 38.175781 -27.863281 Z M 9.78125 -25.644531 C 10.574219 -22.789062 11.367188 -19.773438 12.160156 -16.601562 C 12.476562 -15.441406 12.214844 -13.324219 11.738281 -12.585938 L 11.949219 -12.476562 C 12.742188 -13.695312 14.910156 -14.753906 16.445312 -14.753906 C 17.554688 -14.753906 18.875 -14.488281 19.511719 -14.117188 L 19.617188 -14.277344 C 18.769531 -14.753906 17.605469 -16.496094 17.289062 -17.714844 C 16.445312 -20.886719 15.652344 -23.953125 14.859375 -26.753906 C 14.488281 -27.917969 14.699219 -29.925781 15.121094 -30.71875 L 14.964844 -30.824219 C 14.328125 -29.714844 12.265625 -28.605469 10.46875 -28.605469 C 9.359375 -28.605469 8.144531 -28.871094 7.5625 -29.1875 L 7.457031 -29.027344 C 8.25 -28.5 9.464844 -26.859375 9.78125 -25.644531 Z M 9.78125 -25.644531 "/></g></g></g><g fill="#965fd4" fill-opacity="1"><g transform="translate(187.499832, 265.47886)"><g><path d="M 22.367188 -32.730469 L 9.304688 -32.253906 C 8.195312 -32.253906 6.34375 -32.675781 5.550781 -33.417969 L 5.394531 -33.257812 C 6.027344 -32.675781 6.820312 -30.824219 6.875 -29.664062 C 6.925781 -28.445312 6.292969 -26.542969 5.710938 -25.910156 L 5.867188 -25.75 C 6.449219 -26.382812 8.300781 -27.179688 9.515625 -27.230469 L 22.789062 -27.707031 L 23.792969 -15.332031 L 7.191406 -14.804688 C 6.082031 -14.804688 4.230469 -15.226562 3.4375 -15.96875 L 3.277344 -15.808594 C 3.914062 -15.226562 4.707031 -13.378906 4.757812 -12.214844 C 4.8125 -10.996094 4.175781 -9.09375 3.59375 -8.460938 L 3.753906 -8.300781 C 4.335938 -8.9375 6.1875 -9.730469 7.402344 -9.78125 L 24.214844 -10.3125 L 25.117188 0.792969 C 25.273438 2.167969 24.640625 4.386719 23.953125 5.183594 L 24.109375 5.339844 C 24.796875 4.546875 26.914062 3.59375 28.289062 3.488281 C 29.503906 3.488281 31.726562 3.859375 32.675781 4.707031 L 32.835938 4.546875 C 32.042969 3.859375 31.089844 1.746094 30.984375 0.371094 L 30.085938 -10.46875 L 45.683594 -10.996094 C 46.792969 -10.996094 48.644531 -10.574219 49.4375 -9.835938 L 49.597656 -9.992188 C 48.960938 -10.574219 48.167969 -12.425781 48.117188 -13.640625 C 48.0625 -14.804688 48.699219 -16.707031 49.28125 -17.34375 L 49.121094 -17.5 C 48.539062 -16.867188 46.6875 -16.074219 45.472656 -16.019531 L 29.664062 -15.492188 L 28.660156 -27.917969 L 43.570312 -28.394531 C 44.679688 -28.394531 46.53125 -27.972656 47.324219 -27.230469 L 47.480469 -27.390625 C 46.847656 -27.972656 46.054688 -29.820312 46 -31.039062 C 45.949219 -32.199219 46.582031 -34.105469 47.164062 -34.738281 L 47.007812 -34.898438 C 46.425781 -34.261719 44.574219 -33.46875 43.359375 -33.417969 L 28.234375 -32.886719 L 27.757812 -38.863281 C 27.601562 -40.238281 28.234375 -42.457031 28.921875 -43.25 L 28.765625 -43.410156 C 28.078125 -42.617188 25.960938 -41.664062 24.585938 -41.558594 C 23.371094 -41.558594 21.148438 -41.929688 20.199219 -42.777344 L 20.039062 -42.617188 C 20.832031 -41.929688 21.785156 -39.816406 21.890625 -38.441406 Z M 22.367188 -32.730469 "/></g></g></g><g fill="#965fd4" fill-opacity="1"><g transform="translate(240.374748, 265.47886)"><g><path d="M 45.367188 -16.285156 C 46.636719 -16.285156 48.75 -15.492188 49.4375 -14.804688 L 49.597656 -14.964844 C 48.910156 -15.652344 48.117188 -17.765625 48.117188 -19.085938 C 48.117188 -20.355469 48.910156 -22.472656 49.597656 -23.160156 L 49.4375 -23.316406 C 48.75 -22.628906 46.636719 -21.835938 45.367188 -21.835938 L 7.5625 -21.835938 C 6.238281 -21.835938 4.125 -22.628906 3.4375 -23.316406 L 3.277344 -23.160156 C 3.964844 -22.472656 4.757812 -20.355469 4.757812 -19.085938 C 4.757812 -17.765625 3.964844 -15.652344 3.277344 -14.964844 L 3.4375 -14.804688 C 4.125 -15.492188 6.238281 -16.285156 7.5625 -16.285156 Z M 45.367188 -16.285156 "/></g></g></g></svg>