<svg width="960" height="576.75" xmlns="http://www.w3.org/2000/svg" version="1.0" preserveAspectRatio="xMidYMid meet" zoomAndPan="magnify">
 <defs>
  <g id="svg_1"/>
  <filter id="svg_22_blur">
   <feGaussianBlur stdDeviation="0" in="SourceGraphic"/>
  </filter>
 </defs>
 <g>
  <title>Layer 1</title>
  <g id="svg_2" fill-opacity="0.7608" fill="#965fd4">
   <g id="svg_3">
    <g id="svg_4">
     <path id="svg_5" d="m252.31704,337.45532l0,-80.34375l-49.44141,0l49.44141,-12.35938l0,-67.98437l-123.60547,0l0,160.6875l49.4414,0l0,-61.80078l24.72266,0l0,74.16016l49.44141,-12.35938zm-49.44141,-98.88281l-24.72266,0l0,-24.72266l24.72266,0l0,24.72266zm0,0"/>
    </g>
   </g>
  </g>
  <g id="svg_6" fill-opacity="0.7608" fill="#965fd4">
   <g id="svg_7">
    <g id="svg_8">
     <path id="svg_9" d="m347.02755,337.45532l0,-61.80078l24.72266,0l0,74.16016l49.44141,-12.35938l0,-160.6875l-123.60547,0l0,160.6875l49.4414,0zm24.72266,-98.88281l-24.72266,0l0,-24.72266l24.72266,0l0,24.72266zm0,0"/>
    </g>
   </g>
  </g>
  <g id="svg_10" fill-opacity="0.7608" fill="#965fd4">
   <g id="svg_11">
    <g id="svg_12">
     <path id="svg_13" d="m540.62482,349.8147l49.44141,-12.35938l0,-80.34375l-49.44141,0l49.44141,-12.35938l0,-67.98437l-49.44141,0l0,61.80469l-24.72266,0l0,-61.80469l-49.4414,0l0,160.6875l49.4414,0l0,-61.80078l24.72266,0l0,74.16016zm0,0"/>
    </g>
   </g>
  </g>
  <g id="svg_14" fill-opacity="0.7608" fill="#965fd4">
   <g id="svg_15">
    <g id="svg_16">
     <path id="svg_17" d="m709.49939,349.8147l49.44141,-12.35938l0,-80.34375l-49.44141,0l49.44141,-12.35938l0,-67.98437l-49.44141,0l0,61.80469l-24.72266,0l0,-61.80469l-49.4414,0l0,160.6875l49.4414,0l0,-61.80078l24.72266,0l0,74.16016zm0,0"/>
    </g>
   </g>
  </g>
  <g id="svg_18" fill-opacity="0.7608" fill="#965fd4">
   <g id="svg_19">
    <g id="svg_20">
     <path id="svg_21" d="m804.2099,127.32641l0,37.08203l49.4414,0l0,-37.08203l-49.4414,0zm0,210.12891l49.4414,0l0,-160.6875l-49.4414,0l0,160.6875zm0,0"/>
    </g>
   </g>
  </g>
  <g filter="url(#svg_22_blur)" id="svg_22" fill="#8bd450">
   <g id="svg_23">
    <g id="svg_24">
     <path fill="#1d1a2f" id="svg_25" d="m241.12936,326.26764l0,-80.34375l-49.44141,0l49.44141,-12.35938l0,-67.98437l-123.60547,0l0,160.6875l49.4414,0l0,-61.80078l24.72266,0l0,74.16016l49.44141,-12.35938zm-49.44141,-98.88281l-24.72266,0l0,-24.72266l24.72266,0l0,24.72266zm0,0"/>
    </g>
   </g>
  </g>
  <g id="svg_26" fill="#8bd450">
   <g id="svg_27">
    <g id="svg_28">
     <path fill="#1d1a2f" id="svg_29" d="m335.83987,326.26764l0,-61.80078l24.72266,0l0,74.16016l49.44141,-12.35938l0,-160.6875l-123.60547,0l0,160.6875l49.4414,0zm24.72266,-98.88281l-24.72266,0l0,-24.72266l24.72266,0l0,24.72266zm0,0"/>
    </g>
   </g>
  </g>
  <g id="svg_30" fill="#8bd450">
   <g id="svg_31">
    <g id="svg_32">
     <path fill="#1d1a2f" id="svg_33" d="m529.43713,338.62702l49.44141,-12.35938l0,-80.34375l-49.44141,0l49.44141,-12.35938l0,-67.98437l-49.44141,0l0,61.80469l-24.72266,0l0,-61.80469l-49.4414,0l0,160.6875l49.4414,0l0,-61.80078l24.72266,0l0,74.16016zm0,0"/>
    </g>
   </g>
  </g>
  <g id="svg_34" fill="#8bd450">
   <g id="svg_35">
    <g id="svg_36">
     <path fill="#1d1a2f" id="svg_37" d="m698.31171,338.62702l49.44141,-12.35938l0,-80.34375l-49.44141,0l49.44141,-12.35938l0,-67.98437l-49.44141,0l0,61.80469l-24.72266,0l0,-61.80469l-49.4414,0l0,160.6875l49.4414,0l0,-61.80078l24.72266,0l0,74.16016zm0,0"/>
    </g>
   </g>
  </g>
  <g id="svg_38" fill="#8bd450">
   <g id="svg_39">
    <g id="svg_40">
     <path fill="#1d1a2f" id="svg_41" d="m793.02228,116.13873l0,37.08203l49.4414,0l0,-37.08203l-49.4414,0zm0,210.12891l49.4414,0l0,-160.6875l-49.4414,0l0,160.6875zm0,0"/>
    </g>
   </g>
  </g>
  <g id="svg_42" fill-opacity="0.7608" fill="#965fd4">
   <g id="svg_43">
    <g id="svg_44">
     <path id="svg_45" d="m383.87207,420.22107c1.78906,0 4.63281,1.05469 5.60937,2.03125l0.24219,-0.24219c-0.97656,-0.97656 -2.03125,-3.82031 -2.03125,-5.6914c0,-1.78906 1.05469,-4.63281 2.03125,-5.60938l-0.24219,-0.24218c-0.97656,0.97265 -3.82031,2.03125 -5.60937,2.03125l-44.30078,0c-1.8711,0 -4.71485,-1.0586 -5.69141,-2.03125l-0.24609,0.24218c0.97656,0.97657 2.03515,3.82032 2.03515,5.60938c0,1.87109 -1.05859,4.71484 -2.03515,5.6914l0.24609,0.24219c0.97656,-0.97656 3.82031,-2.03125 5.69141,-2.03125l44.30078,0zm-54.30078,17.07031c0,1.8711 -1.0586,4.79688 -2.03125,5.76954l0.16015,0.16406c0.97657,-0.97656 3.90235,-2.03125 5.77344,-2.03125l50.31641,0c-2.76563,17.63672 -18.04688,24.79297 -38.77344,26.66015c-1.78906,0 -4.63281,-0.32421 -6.09766,-1.46093l-0.16406,0.24218c1.14063,0.89454 2.68359,3.4961 3.00781,5.36719c0.32813,1.78516 -0.24218,4.95703 -1.05468,6.01172l0.24218,0.16406c0.8125,-1.05468 3.57813,-2.4375 5.36719,-2.60156c31.45703,-2.84375 46.65625,-16.5 46.65625,-40.5625l0,-0.8125c0,-0.40625 0.32813,-0.89453 0.48828,-1.13672l-0.16015,-0.16406c-0.2461,0.16406 -0.73438,0.48828 -1.14063,0.48828l-58.6875,0c-1.87109,0 -4.79687,-1.05469 -5.77344,-2.03125l-0.16015,0.16016c0.97265,0.97656 2.03125,3.90234 2.03125,5.77343zm0,0"/>
    </g>
   </g>
  </g>
  <g id="svg_46" fill-opacity="0.7608" fill="#965fd4">
   <g id="svg_47">
    <g id="svg_48">
     <path id="svg_49" d="m434.99304,430.70545c1.30078,4.63281 2.60156,9.67578 3.82031,14.55078c0.48829,1.78906 0.08204,5.03906 -0.64843,6.17969l0.32422,0.16015c1.21875,-1.86719 4.55468,-3.49219 6.91015,-3.49219c1.70703,0 3.73828,0.40625 4.63281,0.97266l0.16407,-0.24219c-1.21875,-0.73047 -3.00782,-3.41406 -3.4961,-5.28515c-1.21875,-4.95703 -2.51953,-9.91797 -3.82031,-14.55078c-0.48828,-1.78516 -0.16406,-5.03907 0.57031,-6.17579l-0.32812,-0.16406c-0.73047,1.14063 -3.41406,2.92578 -5.19922,3.25391c-1.46484,0.40625 -4.96094,0 -6.42188,-0.73438l-0.16406,0.2461c1.30078,0.73047 3.17188,3.41406 3.65625,5.28125zm26.01172,-1.30078c-1.21875,24.95703 -9.18359,34.22265 -31.13281,37.96093c-1.46094,0.32813 -4.79297,-0.24218 -6.01172,-0.97265l-0.16406,0.24218c1.13672,0.73047 2.76172,3.25391 3.16797,5.03907c0.41015,1.70703 -0.07813,4.79687 -0.8125,5.93359l0.32812,0.16406c0.73047,-1.13671 3.33203,-2.60156 5.12109,-2.84375c25.60547,-3.98437 36.25391,-16.09765 37.63282,-45.11718c0.08203,-1.94922 1.38281,-4.875 2.52343,-5.85157l-0.24609,-0.24218c-1.38281,1.21875 -4.39062,1.78906 -6.17578,1.78906c-1.87109,-0.08203 -4.79688,-1.30078 -5.77344,-2.44141l-0.24219,0.2461c0.97266,1.05468 1.86719,4.22656 1.78516,6.09375zm-43.64844,3.41406c1.21875,4.39062 2.4375,9.02344 3.65625,13.90234c0.48828,1.78906 0.08203,5.03906 -0.64843,6.17578l0.32421,0.16407c1.21875,-1.8711 4.55079,-3.4961 6.91016,-3.4961c1.70703,0 3.73828,0.40625 4.71484,0.97656l0.16016,-0.24609c-1.30078,-0.73047 -3.08594,-3.41406 -3.57422,-5.28125c-1.30078,-4.87891 -2.51953,-9.59375 -3.74219,-13.90234c-0.5664,-1.78516 -0.24218,-4.875 0.41016,-6.09375l-0.24609,-0.16407c-0.97657,1.70704 -4.14453,3.41407 -6.91016,3.41407c-1.70703,0 -3.57422,-0.40625 -4.46875,-0.89453l-0.16406,0.24609c1.21875,0.8125 3.08984,3.33203 3.57812,5.19922zm0,0"/>
    </g>
   </g>
  </g>
  <g id="svg_50" fill-opacity="0.7608" fill="#965fd4">
   <g id="svg_51">
    <g id="svg_52">
     <path id="svg_53" d="m517.98117,421.9281l-20.07812,0.73047c-1.70703,0 -4.55078,-0.64844 -5.76953,-1.78906l-0.24219,0.24609c0.97266,0.89453 2.19141,3.73828 2.27344,5.52735c0.08203,1.86718 -0.89453,4.79687 -1.78907,5.76953l0.2461,0.24609c0.89453,-0.97656 3.73828,-2.19531 5.60937,-2.27734l20.40235,-0.73047l1.54297,19.01953l-25.52344,0.8125c-1.70703,0 -4.55078,-0.64844 -5.76953,-1.78516l-0.2461,0.24219c0.97657,0.89453 2.19532,3.73828 2.27735,5.52735c0.08203,1.87109 -0.89453,4.79687 -1.78907,5.76953l0.24219,0.24609c0.89453,-0.97656 3.74219,-2.19531 5.60938,-2.27734l25.85156,-0.8125l1.38281,17.07031c0.24219,2.11328 -0.73437,5.52734 -1.78906,6.74609l0.24219,0.2461c1.05859,-1.21875 4.30859,-2.6836 6.42187,-2.84766c1.8711,0 5.28516,0.57031 6.7461,1.8711l0.24609,-0.24219c-1.21875,-1.0586 -2.68359,-4.3086 -2.84766,-6.42188l-1.3789,-16.66406l23.97656,-0.8125c1.70703,0 4.55469,0.64844 5.77344,1.78516l0.24218,-0.24219c-0.97265,-0.89453 -2.19531,-3.73828 -2.27343,-5.60938c-0.08203,-1.78906 0.89453,-4.71484 1.78515,-5.6914l-0.24218,-0.24219c-0.89454,0.97656 -3.73829,2.19531 -5.60938,2.27734l-24.30469,0.8125l-1.54297,-19.10156l22.92188,-0.73437c1.70703,0 4.55078,0.65234 5.77344,1.78906l0.24218,-0.24219c-0.97656,-0.89453 -2.19531,-3.74219 -2.27734,-5.60937c-0.08203,-1.78907 0.89453,-4.71485 1.78906,-5.69141l-0.24218,-0.24219c-0.89454,0.97266 -3.74219,2.19531 -5.60938,2.27344l-23.25,0.8125l-0.73047,-9.18359c-0.24219,-2.11329 0.73047,-5.52735 1.78906,-6.7461l-0.24609,-0.24609c-1.05469,1.22265 -4.30859,2.68359 -6.42187,2.84765c-1.86719,0 -5.28125,-0.57031 -6.7461,-1.87109l-0.24219,0.24609c1.21875,1.05469 2.6836,4.30469 2.84375,6.41797l0.73047,8.78125zm0,0"/>
    </g>
   </g>
  </g>
  <g id="svg_54" fill-opacity="0.7608" fill="#965fd4">
   <g id="svg_55">
    <g id="svg_56">
     <path id="svg_57" d="m634.62555,447.20935c1.94922,0 5.19922,1.21875 6.25782,2.27344l0.24218,-0.24219c-1.05468,-1.05859 -2.27343,-4.30859 -2.27343,-6.33984c0,-1.95313 1.21875,-5.20313 2.27343,-6.26172l-0.24218,-0.24219c-1.0586,1.0586 -4.3086,2.27735 -6.25782,2.27735l-58.12109,0c-2.03125,0 -5.28516,-1.21875 -6.33984,-2.27735l-0.2461,0.24219c1.0586,1.05859 2.27735,4.30859 2.27735,6.26172c0,2.03125 -1.21875,5.28125 -2.27735,6.33984l0.2461,0.24219c1.05468,-1.05469 4.30859,-2.27344 6.33984,-2.27344l58.12109,0zm0,0"/>
    </g>
   </g>
  </g>
  <g id="svg_58" fill="#8bd450">
   <g id="svg_59">
    <g id="svg_60">
     <path fill="#1d1a2f" id="svg_61" d="m380.27942,416.62842c1.78906,0 4.63281,1.05469 5.60937,2.03125l0.24219,-0.24219c-0.97656,-0.97656 -2.03125,-3.82031 -2.03125,-5.6914c0,-1.78906 1.05469,-4.63281 2.03125,-5.60938l-0.24219,-0.24218c-0.97656,0.97265 -3.82031,2.03125 -5.60937,2.03125l-44.30078,0c-1.8711,0 -4.71485,-1.0586 -5.69141,-2.03125l-0.24609,0.24218c0.97656,0.97657 2.03515,3.82032 2.03515,5.60938c0,1.87109 -1.05859,4.71484 -2.03515,5.6914l0.24609,0.24219c0.97656,-0.97656 3.82031,-2.03125 5.69141,-2.03125l44.30078,0zm-54.30078,17.07031c0,1.8711 -1.0586,4.79688 -2.03125,5.76954l0.16015,0.16406c0.97657,-0.97656 3.90235,-2.03125 5.77344,-2.03125l50.31641,0c-2.76563,17.63672 -18.04688,24.79297 -38.77344,26.66015c-1.78906,0 -4.63281,-0.32421 -6.09766,-1.46093l-0.16406,0.24218c1.14063,0.89454 2.68359,3.4961 3.00781,5.36719c0.32813,1.78516 -0.24218,4.95703 -1.05468,6.01172l0.24218,0.16406c0.8125,-1.05468 3.57813,-2.4375 5.36719,-2.60156c31.45703,-2.84375 46.65625,-16.5 46.65625,-40.5625l0,-0.8125c0,-0.40625 0.32813,-0.89453 0.48828,-1.13672l-0.16015,-0.16406c-0.2461,0.16406 -0.73438,0.48828 -1.14063,0.48828l-58.6875,0c-1.87109,0 -4.79687,-1.05469 -5.77344,-2.03125l-0.16015,0.16016c0.97265,0.97656 2.03125,3.90234 2.03125,5.77343zm0,0"/>
    </g>
   </g>
  </g>
  <g id="svg_62" fill="#8bd450">
   <g id="svg_63">
    <g id="svg_64">
     <path fill="#1d1a2f" id="svg_65" d="m431.40039,427.1128c1.30078,4.63281 2.60156,9.67578 3.82031,14.55078c0.48829,1.78906 0.08204,5.03906 -0.64843,6.17969l0.32422,0.16015c1.21875,-1.86719 4.55468,-3.49219 6.91015,-3.49219c1.70703,0 3.73828,0.40625 4.63281,0.97266l0.16407,-0.24219c-1.21875,-0.73047 -3.00782,-3.41406 -3.4961,-5.28515c-1.21875,-4.95703 -2.51953,-9.91797 -3.82031,-14.55078c-0.48828,-1.78516 -0.16406,-5.03907 0.57031,-6.17579l-0.32812,-0.16406c-0.73047,1.14063 -3.41406,2.92578 -5.19922,3.25391c-1.46484,0.40625 -4.96094,0 -6.42188,-0.73438l-0.16406,0.2461c1.30078,0.73047 3.17188,3.41406 3.65625,5.28125zm26.01172,-1.30078c-1.21875,24.95703 -9.18359,34.22265 -31.13281,37.96093c-1.46094,0.32813 -4.79297,-0.24218 -6.01172,-0.97265l-0.16406,0.24218c1.13672,0.73047 2.76172,3.25391 3.16797,5.03907c0.41015,1.70703 -0.07813,4.79687 -0.8125,5.93359l0.32812,0.16406c0.73047,-1.13671 3.33203,-2.60156 5.12109,-2.84375c25.60547,-3.98437 36.25391,-16.09765 37.63282,-45.11718c0.08203,-1.94922 1.38281,-4.875 2.52343,-5.85157l-0.24609,-0.24218c-1.38281,1.21875 -4.39062,1.78906 -6.17578,1.78906c-1.87109,-0.08203 -4.79688,-1.30078 -5.77344,-2.44141l-0.24219,0.2461c0.97266,1.05468 1.86719,4.22656 1.78516,6.09375zm-43.64844,3.41406c1.21875,4.39062 2.4375,9.02344 3.65625,13.90234c0.48828,1.78906 0.08203,5.03906 -0.64843,6.17578l0.32421,0.16407c1.21875,-1.8711 4.55079,-3.4961 6.91016,-3.4961c1.70703,0 3.73828,0.40625 4.71484,0.97656l0.16016,-0.24609c-1.30078,-0.73047 -3.08594,-3.41406 -3.57422,-5.28125c-1.30078,-4.87891 -2.51953,-9.59375 -3.74219,-13.90234c-0.5664,-1.78516 -0.24218,-4.875 0.41016,-6.09375l-0.24609,-0.16407c-0.97657,1.70704 -4.14453,3.41407 -6.91016,3.41407c-1.70703,0 -3.57422,-0.40625 -4.46875,-0.89453l-0.16406,0.24609c1.21875,0.8125 3.08984,3.33203 3.57812,5.19922zm0,0"/>
    </g>
   </g>
  </g>
  <g id="svg_66" fill="#8bd450">
   <g id="svg_67">
    <g id="svg_68">
     <path fill="#1d1a2f" id="svg_69" d="m514.38855,418.33545l-20.07812,0.73047c-1.70703,0 -4.55078,-0.64844 -5.76953,-1.78906l-0.24219,0.24609c0.97266,0.89453 2.19141,3.73828 2.27344,5.52735c0.08203,1.86718 -0.89453,4.79687 -1.78907,5.76953l0.2461,0.24609c0.89453,-0.97656 3.73828,-2.19531 5.60937,-2.27734l20.40235,-0.73047l1.54297,19.01953l-25.52344,0.8125c-1.70703,0 -4.55078,-0.64844 -5.76953,-1.78516l-0.2461,0.24219c0.97657,0.89453 2.19532,3.73828 2.27735,5.52735c0.08203,1.87109 -0.89453,4.79687 -1.78907,5.76953l0.24219,0.24609c0.89453,-0.97656 3.74219,-2.19531 5.60938,-2.27734l25.85156,-0.8125l1.38281,17.07031c0.24219,2.11328 -0.73437,5.52734 -1.78906,6.74609l0.24219,0.2461c1.05859,-1.21875 4.30859,-2.6836 6.42187,-2.84766c1.8711,0 5.28516,0.57031 6.7461,1.8711l0.24609,-0.24219c-1.21875,-1.0586 -2.68359,-4.3086 -2.84766,-6.42188l-1.3789,-16.66406l23.97656,-0.8125c1.70703,0 4.55469,0.64844 5.77344,1.78516l0.24218,-0.24219c-0.97265,-0.89453 -2.19531,-3.73828 -2.27343,-5.60938c-0.08203,-1.78906 0.89453,-4.71484 1.78515,-5.6914l-0.24218,-0.24219c-0.89454,0.97656 -3.73829,2.19531 -5.60938,2.27734l-24.30469,0.8125l-1.54297,-19.10156l22.92188,-0.73437c1.70703,0 4.55078,0.65234 5.77344,1.78906l0.24218,-0.24219c-0.97656,-0.89453 -2.19531,-3.74219 -2.27734,-5.60937c-0.08203,-1.78907 0.89453,-4.71485 1.78906,-5.69141l-0.24218,-0.24219c-0.89454,0.97266 -3.74219,2.19531 -5.60938,2.27344l-23.25,0.8125l-0.73047,-9.18359c-0.24219,-2.11329 0.73047,-5.52735 1.78906,-6.7461l-0.24609,-0.24609c-1.05469,1.22265 -4.30859,2.68359 -6.42187,2.84765c-1.86719,0 -5.28125,-0.57031 -6.7461,-1.87109l-0.24219,0.24609c1.21875,1.05469 2.6836,4.30469 2.84375,6.41797l0.73047,8.78125zm0,0"/>
    </g>
   </g>
  </g>
  <g id="svg_70" fill="#8bd450">
   <g id="svg_71">
    <g id="svg_72">
     <path fill="#1d1a2f" id="svg_73" d="m631.03289,443.6167c1.94922,0 5.19922,1.21875 6.25782,2.27344l0.24218,-0.24219c-1.05468,-1.05859 -2.27343,-4.30859 -2.27343,-6.33984c0,-1.95313 1.21875,-5.20313 2.27343,-6.26172l-0.24218,-0.24219c-1.0586,1.0586 -4.3086,2.27735 -6.25782,2.27735l-58.12109,0c-2.03125,0 -5.28516,-1.21875 -6.33984,-2.27735l-0.2461,0.24219c1.0586,1.05859 2.27735,4.30859 2.27735,6.26172c0,2.03125 -1.21875,5.28125 -2.27735,6.33984l0.2461,0.24219c1.05468,-1.05469 4.30859,-2.27344 6.33984,-2.27344l58.12109,0zm0,0"/>
    </g>
   </g>
  </g>
 </g>
</svg>