<svg xmlns="http://www.w3.org/2000/svg" xmlns:xlink="http://www.w3.org/1999/xlink" width="1280" zoomAndPan="magnify" viewBox="0 0 960 576.75" height="769" preserveAspectRatio="xMidYMid meet" version="1.0"><defs><g/></defs><g fill="#965fd4" fill-opacity="0.7608"><g transform="translate(122.531873, 337.455311)"><g><path d="M 129.785156 0 L 129.785156 -80.34375 L 80.34375 -80.34375 L 129.785156 -92.703125 L 129.785156 -160.6875 L 6.179688 -160.6875 L 6.179688 0 L 55.621094 0 L 55.621094 -61.800781 L 80.34375 -61.800781 L 80.34375 12.359375 Z M 80.34375 -98.882812 L 55.621094 -98.882812 L 55.621094 -123.605469 L 80.34375 -123.605469 Z M 80.34375 -98.882812 "/></g></g></g><g fill="#965fd4" fill-opacity="0.7608"><g transform="translate(291.406463, 337.455311)"><g><path d="M 55.621094 0 L 55.621094 -61.800781 L 80.34375 -61.800781 L 80.34375 12.359375 L 129.785156 0 L 129.785156 -160.6875 L 6.179688 -160.6875 L 6.179688 0 Z M 80.34375 -98.882812 L 55.621094 -98.882812 L 55.621094 -123.605469 L 80.34375 -123.605469 Z M 80.34375 -98.882812 "/></g></g></g><g fill="#965fd4" fill-opacity="0.7608"><g transform="translate(460.281052, 337.455311)"><g><path d="M 80.34375 12.359375 L 129.785156 0 L 129.785156 -80.34375 L 80.34375 -80.34375 L 129.785156 -92.703125 L 129.785156 -160.6875 L 80.34375 -160.6875 L 80.34375 -98.882812 L 55.621094 -98.882812 L 55.621094 -160.6875 L 6.179688 -160.6875 L 6.179688 0 L 55.621094 0 L 55.621094 -61.800781 L 80.34375 -61.800781 Z M 80.34375 12.359375 "/></g></g></g><g fill="#965fd4" fill-opacity="0.7608"><g transform="translate(629.155642, 337.455311)"><g><path d="M 80.34375 12.359375 L 129.785156 0 L 129.785156 -80.34375 L 80.34375 -80.34375 L 129.785156 -92.703125 L 129.785156 -160.6875 L 80.34375 -160.6875 L 80.34375 -98.882812 L 55.621094 -98.882812 L 55.621094 -160.6875 L 6.179688 -160.6875 L 6.179688 0 L 55.621094 0 L 55.621094 -61.800781 L 80.34375 -61.800781 Z M 80.34375 12.359375 "/></g></g></g><g fill="#965fd4" fill-opacity="0.7608"><g transform="translate(798.030231, 337.455311)"><g><path d="M 6.179688 -210.128906 L 6.179688 -173.046875 L 55.621094 -173.046875 L 55.621094 -210.128906 Z M 6.179688 0 L 55.621094 0 L 55.621094 -160.6875 L 6.179688 -160.6875 Z M 6.179688 0 "/></g></g></g><g fill="#8bd450" fill-opacity="1"><g transform="translate(111.344203, 326.267641)"><g><path d="M 129.785156 0 L 129.785156 -80.34375 L 80.34375 -80.34375 L 129.785156 -92.703125 L 129.785156 -160.6875 L 6.179688 -160.6875 L 6.179688 0 L 55.621094 0 L 55.621094 -61.800781 L 80.34375 -61.800781 L 80.34375 12.359375 Z M 80.34375 -98.882812 L 55.621094 -98.882812 L 55.621094 -123.605469 L 80.34375 -123.605469 Z M 80.34375 -98.882812 "/></g></g></g><g fill="#8bd450" fill-opacity="1"><g transform="translate(280.218792, 326.267641)"><g><path d="M 55.621094 0 L 55.621094 -61.800781 L 80.34375 -61.800781 L 80.34375 12.359375 L 129.785156 0 L 129.785156 -160.6875 L 6.179688 -160.6875 L 6.179688 0 Z M 80.34375 -98.882812 L 55.621094 -98.882812 L 55.621094 -123.605469 L 80.34375 -123.605469 Z M 80.34375 -98.882812 "/></g></g></g><g fill="#8bd450" fill-opacity="1"><g transform="translate(449.093382, 326.267641)"><g><path d="M 80.34375 12.359375 L 129.785156 0 L 129.785156 -80.34375 L 80.34375 -80.34375 L 129.785156 -92.703125 L 129.785156 -160.6875 L 80.34375 -160.6875 L 80.34375 -98.882812 L 55.621094 -98.882812 L 55.621094 -160.6875 L 6.179688 -160.6875 L 6.179688 0 L 55.621094 0 L 55.621094 -61.800781 L 80.34375 -61.800781 Z M 80.34375 12.359375 "/></g></g></g><g fill="#8bd450" fill-opacity="1"><g transform="translate(617.967971, 326.267641)"><g><path d="M 80.34375 12.359375 L 129.785156 0 L 129.785156 -80.34375 L 80.34375 -80.34375 L 129.785156 -92.703125 L 129.785156 -160.6875 L 80.34375 -160.6875 L 80.34375 -98.882812 L 55.621094 -98.882812 L 55.621094 -160.6875 L 6.179688 -160.6875 L 6.179688 0 L 55.621094 0 L 55.621094 -61.800781 L 80.34375 -61.800781 Z M 80.34375 12.359375 "/></g></g></g><g fill="#8bd450" fill-opacity="1"><g transform="translate(786.842561, 326.267641)"><g><path d="M 6.179688 -210.128906 L 6.179688 -173.046875 L 55.621094 -173.046875 L 55.621094 -210.128906 Z M 6.179688 0 L 55.621094 0 L 55.621094 -160.6875 L 6.179688 -160.6875 Z M 6.179688 0 "/></g></g></g><g fill="#965fd4" fill-opacity="0.7608"><g transform="translate(321.036138, 472.244499)"><g><path d="M 62.835938 -52.023438 C 64.625 -52.023438 67.46875 -50.96875 68.445312 -49.992188 L 68.6875 -50.234375 C 67.710938 -51.210938 66.65625 -54.054688 66.65625 -55.925781 C 66.65625 -57.714844 67.710938 -60.558594 68.6875 -61.535156 L 68.445312 -61.777344 C 67.46875 -60.804688 64.625 -59.746094 62.835938 -59.746094 L 18.535156 -59.746094 C 16.664062 -59.746094 13.820312 -60.804688 12.84375 -61.777344 L 12.597656 -61.535156 C 13.574219 -60.558594 14.632812 -57.714844 14.632812 -55.925781 C 14.632812 -54.054688 13.574219 -51.210938 12.597656 -50.234375 L 12.84375 -49.992188 C 13.820312 -50.96875 16.664062 -52.023438 18.535156 -52.023438 Z M 8.535156 -34.953125 C 8.535156 -33.082031 7.476562 -30.15625 6.503906 -29.183594 L 6.664062 -29.019531 C 7.640625 -29.996094 10.566406 -31.050781 12.4375 -31.050781 L 62.753906 -31.050781 C 59.988281 -13.414062 44.707031 -6.257812 23.980469 -4.390625 C 22.191406 -4.390625 19.347656 -4.714844 17.882812 -5.851562 L 17.71875 -5.609375 C 18.859375 -4.714844 20.402344 -2.113281 20.726562 -0.242188 C 21.054688 1.542969 20.484375 4.714844 19.671875 5.769531 L 19.914062 5.933594 C 20.726562 4.878906 23.492188 3.496094 25.28125 3.332031 C 56.738281 0.488281 71.9375 -13.167969 71.9375 -37.230469 L 71.9375 -38.042969 C 71.9375 -38.449219 72.265625 -38.9375 72.425781 -39.179688 L 72.265625 -39.34375 C 72.019531 -39.179688 71.53125 -38.855469 71.125 -38.855469 L 12.4375 -38.855469 C 10.566406 -38.855469 7.640625 -39.910156 6.664062 -40.886719 L 6.503906 -40.726562 C 7.476562 -39.75 8.535156 -36.824219 8.535156 -34.953125 Z M 8.535156 -34.953125 "/></g></g></g><g fill="#965fd4" fill-opacity="0.7608"><g transform="translate(402.317251, 472.244499)"><g><path d="M 32.675781 -41.539062 C 33.976562 -36.90625 35.277344 -31.863281 36.496094 -26.988281 C 36.984375 -25.199219 36.578125 -21.949219 35.847656 -20.808594 L 36.171875 -20.648438 C 37.390625 -22.515625 40.726562 -24.140625 43.082031 -24.140625 C 44.789062 -24.140625 46.820312 -23.734375 47.714844 -23.167969 L 47.878906 -23.410156 C 46.660156 -24.140625 44.871094 -26.824219 44.382812 -28.695312 C 43.164062 -33.652344 41.863281 -38.613281 40.5625 -43.246094 C 40.074219 -45.03125 40.398438 -48.285156 41.132812 -49.421875 L 40.804688 -49.585938 C 40.074219 -48.445312 37.390625 -46.660156 35.605469 -46.332031 C 34.140625 -45.925781 30.644531 -46.332031 29.183594 -47.066406 L 29.019531 -46.820312 C 30.320312 -46.089844 32.191406 -43.40625 32.675781 -41.539062 Z M 58.6875 -42.839844 C 57.46875 -17.882812 49.503906 -8.617188 27.554688 -4.878906 C 26.09375 -4.550781 22.761719 -5.121094 21.542969 -5.851562 L 21.378906 -5.609375 C 22.515625 -4.878906 24.140625 -2.355469 24.546875 -0.570312 C 24.957031 1.136719 24.46875 4.226562 23.734375 5.363281 L 24.0625 5.527344 C 24.792969 4.390625 27.394531 2.925781 29.183594 2.683594 C 54.789062 -1.300781 65.4375 -13.414062 66.816406 -42.433594 C 66.898438 -44.382812 68.199219 -47.308594 69.339844 -48.285156 L 69.09375 -48.527344 C 67.710938 -47.308594 64.703125 -46.738281 62.917969 -46.738281 C 61.046875 -46.820312 58.121094 -48.039062 57.144531 -49.179688 L 56.902344 -48.933594 C 57.875 -47.878906 58.769531 -44.707031 58.6875 -42.839844 Z M 15.039062 -39.425781 C 16.257812 -35.035156 17.476562 -30.402344 18.695312 -25.523438 C 19.183594 -23.734375 18.777344 -20.484375 18.046875 -19.347656 L 18.371094 -19.183594 C 19.589844 -21.054688 22.921875 -22.679688 25.28125 -22.679688 C 26.988281 -22.679688 29.019531 -22.273438 29.996094 -21.703125 L 30.15625 -21.949219 C 28.855469 -22.679688 27.070312 -25.363281 26.582031 -27.230469 C 25.28125 -32.109375 24.0625 -36.824219 22.839844 -41.132812 C 22.273438 -42.917969 22.597656 -46.007812 23.25 -47.226562 L 23.003906 -47.390625 C 22.027344 -45.683594 18.859375 -43.976562 16.09375 -43.976562 C 14.386719 -43.976562 12.519531 -44.382812 11.625 -44.871094 L 11.460938 -44.625 C 12.679688 -43.8125 14.550781 -41.292969 15.039062 -39.425781 Z M 15.039062 -39.425781 "/></g></g></g><g fill="#965fd4" fill-opacity="0.7608"><g transform="translate(483.598365, 472.244499)"><g><path d="M 34.382812 -50.316406 L 14.304688 -49.585938 C 12.597656 -49.585938 9.753906 -50.234375 8.535156 -51.375 L 8.292969 -51.128906 C 9.265625 -50.234375 10.484375 -47.390625 10.566406 -45.601562 C 10.648438 -43.734375 9.671875 -40.804688 8.777344 -39.832031 L 9.023438 -39.585938 C 9.917969 -40.5625 12.761719 -41.78125 14.632812 -41.863281 L 35.035156 -42.59375 L 36.578125 -23.574219 L 11.054688 -22.761719 C 9.347656 -22.761719 6.503906 -23.410156 5.285156 -24.546875 L 5.039062 -24.304688 C 6.015625 -23.410156 7.234375 -20.566406 7.316406 -18.777344 C 7.398438 -16.90625 6.421875 -13.980469 5.527344 -13.007812 L 5.769531 -12.761719 C 6.664062 -13.738281 9.511719 -14.957031 11.378906 -15.039062 L 37.230469 -15.851562 L 38.613281 1.21875 C 38.855469 3.332031 37.878906 6.746094 36.824219 7.964844 L 37.066406 8.210938 C 38.125 6.992188 41.375 5.527344 43.488281 5.363281 C 45.359375 5.363281 48.773438 5.933594 50.234375 7.234375 L 50.480469 6.992188 C 49.261719 5.933594 47.796875 2.683594 47.632812 0.570312 L 46.253906 -16.09375 L 70.230469 -16.90625 C 71.9375 -16.90625 74.785156 -16.257812 76.003906 -15.121094 L 76.246094 -15.363281 C 75.273438 -16.257812 74.050781 -19.101562 73.972656 -20.972656 C 73.890625 -22.761719 74.867188 -25.6875 75.757812 -26.664062 L 75.515625 -26.90625 C 74.621094 -25.929688 71.777344 -24.710938 69.90625 -24.628906 L 45.601562 -23.816406 L 44.058594 -42.917969 L 66.980469 -43.652344 C 68.6875 -43.652344 71.53125 -43 72.753906 -41.863281 L 72.996094 -42.105469 C 72.019531 -43 70.800781 -45.847656 70.71875 -47.714844 C 70.636719 -49.503906 71.613281 -52.429688 72.507812 -53.40625 L 72.265625 -53.648438 C 71.371094 -52.675781 68.523438 -51.453125 66.65625 -51.375 L 43.40625 -50.5625 L 42.675781 -59.746094 C 42.433594 -61.859375 43.40625 -65.273438 44.464844 -66.492188 L 44.21875 -66.738281 C 43.164062 -65.515625 39.910156 -64.054688 37.796875 -63.890625 C 35.929688 -63.890625 32.515625 -64.460938 31.050781 -65.761719 L 30.808594 -65.515625 C 32.027344 -64.460938 33.492188 -61.210938 33.652344 -59.097656 Z M 34.382812 -50.316406 "/></g></g></g><g fill="#965fd4" fill-opacity="0.7608"><g transform="translate(564.879466, 472.244499)"><g><path d="M 69.746094 -25.035156 C 71.695312 -25.035156 74.945312 -23.816406 76.003906 -22.761719 L 76.246094 -23.003906 C 75.191406 -24.0625 73.972656 -27.3125 73.972656 -29.34375 C 73.972656 -31.296875 75.191406 -34.546875 76.246094 -35.605469 L 76.003906 -35.847656 C 74.945312 -34.789062 71.695312 -33.570312 69.746094 -33.570312 L 11.625 -33.570312 C 9.59375 -33.570312 6.339844 -34.789062 5.285156 -35.847656 L 5.039062 -35.605469 C 6.097656 -34.546875 7.316406 -31.296875 7.316406 -29.34375 C 7.316406 -27.3125 6.097656 -24.0625 5.039062 -23.003906 L 5.285156 -22.761719 C 6.339844 -23.816406 9.59375 -25.035156 11.625 -25.035156 Z M 69.746094 -25.035156 "/></g></g></g><g fill="#8bd450" fill-opacity="1"><g transform="translate(317.443496, 468.651857)"><g><path d="M 62.835938 -52.023438 C 64.625 -52.023438 67.46875 -50.96875 68.445312 -49.992188 L 68.6875 -50.234375 C 67.710938 -51.210938 66.65625 -54.054688 66.65625 -55.925781 C 66.65625 -57.714844 67.710938 -60.558594 68.6875 -61.535156 L 68.445312 -61.777344 C 67.46875 -60.804688 64.625 -59.746094 62.835938 -59.746094 L 18.535156 -59.746094 C 16.664062 -59.746094 13.820312 -60.804688 12.84375 -61.777344 L 12.597656 -61.535156 C 13.574219 -60.558594 14.632812 -57.714844 14.632812 -55.925781 C 14.632812 -54.054688 13.574219 -51.210938 12.597656 -50.234375 L 12.84375 -49.992188 C 13.820312 -50.96875 16.664062 -52.023438 18.535156 -52.023438 Z M 8.535156 -34.953125 C 8.535156 -33.082031 7.476562 -30.15625 6.503906 -29.183594 L 6.664062 -29.019531 C 7.640625 -29.996094 10.566406 -31.050781 12.4375 -31.050781 L 62.753906 -31.050781 C 59.988281 -13.414062 44.707031 -6.257812 23.980469 -4.390625 C 22.191406 -4.390625 19.347656 -4.714844 17.882812 -5.851562 L 17.71875 -5.609375 C 18.859375 -4.714844 20.402344 -2.113281 20.726562 -0.242188 C 21.054688 1.542969 20.484375 4.714844 19.671875 5.769531 L 19.914062 5.933594 C 20.726562 4.878906 23.492188 3.496094 25.28125 3.332031 C 56.738281 0.488281 71.9375 -13.167969 71.9375 -37.230469 L 71.9375 -38.042969 C 71.9375 -38.449219 72.265625 -38.9375 72.425781 -39.179688 L 72.265625 -39.34375 C 72.019531 -39.179688 71.53125 -38.855469 71.125 -38.855469 L 12.4375 -38.855469 C 10.566406 -38.855469 7.640625 -39.910156 6.664062 -40.886719 L 6.503906 -40.726562 C 7.476562 -39.75 8.535156 -36.824219 8.535156 -34.953125 Z M 8.535156 -34.953125 "/></g></g></g><g fill="#8bd450" fill-opacity="1"><g transform="translate(398.72461, 468.651857)"><g><path d="M 32.675781 -41.539062 C 33.976562 -36.90625 35.277344 -31.863281 36.496094 -26.988281 C 36.984375 -25.199219 36.578125 -21.949219 35.847656 -20.808594 L 36.171875 -20.648438 C 37.390625 -22.515625 40.726562 -24.140625 43.082031 -24.140625 C 44.789062 -24.140625 46.820312 -23.734375 47.714844 -23.167969 L 47.878906 -23.410156 C 46.660156 -24.140625 44.871094 -26.824219 44.382812 -28.695312 C 43.164062 -33.652344 41.863281 -38.613281 40.5625 -43.246094 C 40.074219 -45.03125 40.398438 -48.285156 41.132812 -49.421875 L 40.804688 -49.585938 C 40.074219 -48.445312 37.390625 -46.660156 35.605469 -46.332031 C 34.140625 -45.925781 30.644531 -46.332031 29.183594 -47.066406 L 29.019531 -46.820312 C 30.320312 -46.089844 32.191406 -43.40625 32.675781 -41.539062 Z M 58.6875 -42.839844 C 57.46875 -17.882812 49.503906 -8.617188 27.554688 -4.878906 C 26.09375 -4.550781 22.761719 -5.121094 21.542969 -5.851562 L 21.378906 -5.609375 C 22.515625 -4.878906 24.140625 -2.355469 24.546875 -0.570312 C 24.957031 1.136719 24.46875 4.226562 23.734375 5.363281 L 24.0625 5.527344 C 24.792969 4.390625 27.394531 2.925781 29.183594 2.683594 C 54.789062 -1.300781 65.4375 -13.414062 66.816406 -42.433594 C 66.898438 -44.382812 68.199219 -47.308594 69.339844 -48.285156 L 69.09375 -48.527344 C 67.710938 -47.308594 64.703125 -46.738281 62.917969 -46.738281 C 61.046875 -46.820312 58.121094 -48.039062 57.144531 -49.179688 L 56.902344 -48.933594 C 57.875 -47.878906 58.769531 -44.707031 58.6875 -42.839844 Z M 15.039062 -39.425781 C 16.257812 -35.035156 17.476562 -30.402344 18.695312 -25.523438 C 19.183594 -23.734375 18.777344 -20.484375 18.046875 -19.347656 L 18.371094 -19.183594 C 19.589844 -21.054688 22.921875 -22.679688 25.28125 -22.679688 C 26.988281 -22.679688 29.019531 -22.273438 29.996094 -21.703125 L 30.15625 -21.949219 C 28.855469 -22.679688 27.070312 -25.363281 26.582031 -27.230469 C 25.28125 -32.109375 24.0625 -36.824219 22.839844 -41.132812 C 22.273438 -42.917969 22.597656 -46.007812 23.25 -47.226562 L 23.003906 -47.390625 C 22.027344 -45.683594 18.859375 -43.976562 16.09375 -43.976562 C 14.386719 -43.976562 12.519531 -44.382812 11.625 -44.871094 L 11.460938 -44.625 C 12.679688 -43.8125 14.550781 -41.292969 15.039062 -39.425781 Z M 15.039062 -39.425781 "/></g></g></g><g fill="#8bd450" fill-opacity="1"><g transform="translate(480.005723, 468.651857)"><g><path d="M 34.382812 -50.316406 L 14.304688 -49.585938 C 12.597656 -49.585938 9.753906 -50.234375 8.535156 -51.375 L 8.292969 -51.128906 C 9.265625 -50.234375 10.484375 -47.390625 10.566406 -45.601562 C 10.648438 -43.734375 9.671875 -40.804688 8.777344 -39.832031 L 9.023438 -39.585938 C 9.917969 -40.5625 12.761719 -41.78125 14.632812 -41.863281 L 35.035156 -42.59375 L 36.578125 -23.574219 L 11.054688 -22.761719 C 9.347656 -22.761719 6.503906 -23.410156 5.285156 -24.546875 L 5.039062 -24.304688 C 6.015625 -23.410156 7.234375 -20.566406 7.316406 -18.777344 C 7.398438 -16.90625 6.421875 -13.980469 5.527344 -13.007812 L 5.769531 -12.761719 C 6.664062 -13.738281 9.511719 -14.957031 11.378906 -15.039062 L 37.230469 -15.851562 L 38.613281 1.21875 C 38.855469 3.332031 37.878906 6.746094 36.824219 7.964844 L 37.066406 8.210938 C 38.125 6.992188 41.375 5.527344 43.488281 5.363281 C 45.359375 5.363281 48.773438 5.933594 50.234375 7.234375 L 50.480469 6.992188 C 49.261719 5.933594 47.796875 2.683594 47.632812 0.570312 L 46.253906 -16.09375 L 70.230469 -16.90625 C 71.9375 -16.90625 74.785156 -16.257812 76.003906 -15.121094 L 76.246094 -15.363281 C 75.273438 -16.257812 74.050781 -19.101562 73.972656 -20.972656 C 73.890625 -22.761719 74.867188 -25.6875 75.757812 -26.664062 L 75.515625 -26.90625 C 74.621094 -25.929688 71.777344 -24.710938 69.90625 -24.628906 L 45.601562 -23.816406 L 44.058594 -42.917969 L 66.980469 -43.652344 C 68.6875 -43.652344 71.53125 -43 72.753906 -41.863281 L 72.996094 -42.105469 C 72.019531 -43 70.800781 -45.847656 70.71875 -47.714844 C 70.636719 -49.503906 71.613281 -52.429688 72.507812 -53.40625 L 72.265625 -53.648438 C 71.371094 -52.675781 68.523438 -51.453125 66.65625 -51.375 L 43.40625 -50.5625 L 42.675781 -59.746094 C 42.433594 -61.859375 43.40625 -65.273438 44.464844 -66.492188 L 44.21875 -66.738281 C 43.164062 -65.515625 39.910156 -64.054688 37.796875 -63.890625 C 35.929688 -63.890625 32.515625 -64.460938 31.050781 -65.761719 L 30.808594 -65.515625 C 32.027344 -64.460938 33.492188 -61.210938 33.652344 -59.097656 Z M 34.382812 -50.316406 "/></g></g></g><g fill="#8bd450" fill-opacity="1"><g transform="translate(561.286825, 468.651857)"><g><path d="M 69.746094 -25.035156 C 71.695312 -25.035156 74.945312 -23.816406 76.003906 -22.761719 L 76.246094 -23.003906 C 75.191406 -24.0625 73.972656 -27.3125 73.972656 -29.34375 C 73.972656 -31.296875 75.191406 -34.546875 76.246094 -35.605469 L 76.003906 -35.847656 C 74.945312 -34.789062 71.695312 -33.570312 69.746094 -33.570312 L 11.625 -33.570312 C 9.59375 -33.570312 6.339844 -34.789062 5.285156 -35.847656 L 5.039062 -35.605469 C 6.097656 -34.546875 7.316406 -31.296875 7.316406 -29.34375 C 7.316406 -27.3125 6.097656 -24.0625 5.039062 -23.003906 L 5.285156 -22.761719 C 6.339844 -23.816406 9.59375 -25.035156 11.625 -25.035156 Z M 69.746094 -25.035156 "/></g></g></g></svg>